<!DOCTYPE svg PUBLIC "-//W3C//DTD SVG 1.1//EN" "http://www.w3.org/Graphics/SVG/1.1/DTD/svg11.dtd">
<!-- Uploaded to: SVG Repo, www.svgrepo.com, Transformed by: SVG Repo Mixer Tools -->
<svg fill="#000000" height="100px" width="100px" version="1.1" id="Layer_1" xmlns="http://www.w3.org/2000/svg" xmlns:xlink="http://www.w3.org/1999/xlink" viewBox="0 0 511.893 511.893" xml:space="preserve">
<g id="SVGRepo_bgCarrier" stroke-width="0"/>
<g id="SVGRepo_tracerCarrier" stroke-linecap="round" stroke-linejoin="round"/>
<g id="SVGRepo_iconCarrier"> <g> <g> <path d="M367.249,198.827c-6.507-12.907-14.4-24.32-21.973-35.2c-6.72-9.6-13.013-18.773-18.56-29.013 c-7.573-13.867-11.627-31.467-15.68-48.427l-2.347-9.707c-1.92-7.68-1.813-18.133-1.707-28.373 c0.107-14.293,0.213-29.013-4.693-40.533c-1.6-3.947-5.44-6.507-9.707-6.507L193.489,0h-0.107c-5.867,0-10.667,4.8-10.667,10.667 c0,1.28,0.213,2.453,0.64,3.627c4.587,12.693,2.987,36.16,1.6,54.933c-0.427,6.507-0.853,12.587-1.067,17.813 c-0.64,20.16-9.067,42.667-26.027,68.693c-17.813,27.413-24.96,50.56-24.64,80.107c0.107,13.333,5.013,24.213,14.293,31.787 c10.987,8.853,28.16,12.373,46.933,9.92c-1.707,1.28-3.52,2.453-5.333,3.627c-2.56,1.6-5.973,2.027-10.027,2.56 c-6.08,0.853-13.653,2.027-20.907,7.36c-14.933,11.093-15.04,24.96-13.973,37.12c1.6,18.027,12.16,33.067,21.547,46.4 c3.52,4.907,6.72,9.6,9.493,14.187c12.693,21.547,16.213,48.533,19.52,74.667c1.707,13.333,3.52,26.987,6.4,40.107 c1.067,4.907,5.44,8.32,10.453,8.32h0.64l83.52-4.907c5.653-0.32,10.027-5.013,10.027-10.667 c0-38.827,7.467-77.973,24.213-126.933c1.6-4.693,3.733-9.493,5.973-14.4c6.827-15.467,14.613-32.96,8.32-53.547 c-1.6-5.333-4.693-10.027-9.067-13.547c7.68,0.107,15.36-1.493,22.4-4.48c8.64-3.947,15.253-11.307,18.24-20.373 C383.569,241.173,373.649,211.413,367.249,198.827z M316.476,346.56c-2.347,5.227-4.693,10.56-6.613,16.213 c-16.107,47.04-24.107,85.76-25.28,123.733l-64.32,3.733c-1.707-9.387-2.987-19.093-4.267-29.227 c-3.627-28.267-7.467-57.493-22.293-82.773c-3.093-5.333-6.827-10.56-10.453-15.68c-8.533-12.16-16.64-23.573-17.707-35.947 c-0.96-10.667,0.107-14.187,5.44-18.133c2.773-2.027,5.973-2.56,11.2-3.307c5.44-0.747,11.627-1.707,17.92-5.44 c4.8-2.987,9.28-6.293,13.653-9.92c7.573-6.08,13.44-10.88,21.973-11.947c2.24-0.32,4.48-0.427,6.827-0.427 c5.227,0,9.707,0.853,12.48,2.453c2.773,1.6,5.44,3.413,8,5.227c5.12,3.52,10.88,7.573,18.133,10.24 c5.547,2.027,11.84,2.667,18.56,3.52c13.013,1.493,22.4,3.093,24.213,9.067C327.889,320.853,322.662,332.8,316.476,346.56z M355.729,255.893c-1.067,3.52-3.52,6.507-6.933,8c-15.787,7.147-42.667-1.92-60.48-8l-6.933-2.347 c-13.44-4.587-27.52-6.827-41.707-6.613c-11.947,0-20.907,2.56-29.547,5.12c-3.947,1.173-8.107,2.347-12.8,3.307 c-14.827,3.093-29.227,1.387-36.373-4.48c-4.267-3.413-6.293-8.427-6.4-15.36c-0.213-25.28,5.76-44.48,21.227-68.373 c19.093-29.44,28.693-55.467,29.44-79.68c0.213-5.013,0.533-10.88,0.96-17.067c1.173-16.32,2.453-34.133,0.427-49.28l77.76,0.96 c1.28,7.253,1.28,16.64,1.173,25.707c-0.107,11.413-0.107,23.253,2.347,33.493l2.24,9.493c4.267,18.347,8.747,37.227,17.6,53.653 c6.08,11.307,13.12,21.333,19.84,31.04c7.467,10.773,14.613,21.013,20.373,32.64C354.129,220.267,360.422,242.773,355.729,255.893 z"/> </g> </g> </g>
</svg>