<?xml version="1.0" encoding="utf-8"?>
<!-- Svg Vector Icons : http://www.onlinewebfonts.com/icon -->
<!DOCTYPE svg PUBLIC "-//W3C//DTD SVG 1.1//EN" "http://www.w3.org/Graphics/SVG/1.1/DTD/svg11.dtd">
<svg version="1.1" xmlns="http://www.w3.org/2000/svg" xmlns:xlink="http://www.w3.org/1999/xlink" x="0px" y="0px" viewBox="0 0 256 256" enable-background="new 0 0 256 256" xml:space="preserve">
<metadata> Svg Vector Icons : http://www.onlinewebfonts.com/icon </metadata>
<g><g><path fill="#000000" d="M93.8,163c-0.8,1.1-1.7,2.4-2.6,4.1c-0.9,1.6-1.9,3.6-3,5.9c-2.3,4.5-4.1,8.3-5.3,11.4c-1.2,3.1-2.6,5.6-4.1,7.4c-1.5,1.8-3.5,3.2-5.9,4c-2.4,0.8-6,1.2-10.8,1.2H21.3c-3.5,0-6.3-1.3-8.2-3.9c-2-2.6-3-5.5-3.1-8.6c-0.1-3.2,0.8-6.1,2.7-8.6c1.9-2.6,5-3.9,9.2-3.9c1.9,0,4.1,0,6.6-0.1c2.5-0.1,5.1-0.1,7.8-0.1c2.7,0,5.4,0,8.1-0.1c2.7-0.1,5.2-0.1,7.5-0.1c2.4,0,4.6-1.1,6.5-3.3c1.9-2.2,3.6-5,5.1-8.1c1.5-3.2,2.8-6.4,4.1-9.7c1.2-3.3,2.4-5.9,3.5-7.9c0.4-0.8,0.8-1.6,1.3-2.4c0.5-0.8,1-1.7,1.5-2.6c2.6,0.7,5.2,1.8,7.7,3.3c2.6,1.5,4.8,3.6,6.7,6.3c1.8,2.7,3,5.5,3.8,8.2C93,157.9,93.5,160.5,93.8,163L93.8,163z M96.8,175.2c3.3,4.2,6,7.9,8.4,11.2c0.9,1.3,1.8,2.7,2.6,4.1c0.8,1.3,1.4,2.6,1.8,3.6c0.4,1,0.6,1.8,0.5,2.4c-0.1,0.6-0.5,0.9-1.3,0.9h-6.1c-2.4,0-4.8-0.1-7.1-0.2c-2.7,0-5.5-0.1-8.4-0.2L96.8,175.2z M202,57.8c6.1,0,11.8,1.2,17.1,3.5c5.3,2.3,9.9,5.5,13.9,9.5c4,4,7.2,8.7,9.5,14c2.3,5.3,3.5,11.1,3.5,17.2c0,6.1-1.2,11.8-3.5,17.2c-2.3,5.4-5.5,10-9.5,14c-4,4-8.6,7.2-13.9,9.5c-5.3,2.3-11,3.5-17.1,3.5c-6.1,0-11.8-1.2-17.2-3.5c-5.4-2.3-10-5.5-14-9.5c-4-4-7.2-8.7-9.5-14c-2.3-5.4-3.5-11.1-3.5-17.2c0-6.1,1.2-11.8,3.5-17.2c2.3-5.4,5.5-10,9.5-14c4-4,8.7-7.2,14-9.5C190.2,58.9,195.9,57.8,202,57.8z M147.7,116.8c1.6,2.8,4.1,6.3,7.5,10.5c3.4,4.1,7.1,8.6,11.2,13.5c4.1,4.9,8.3,10,12.6,15.4c4.3,5.4,8.4,10.5,12,15.6c3.7,5.2,5,9.8,4,13.9c-1,4.1-3.3,7.3-6.7,9.6c-3.5,2.2-7.6,3.2-12.4,3c-4.8-0.3-9.2-2.2-13.1-5.9c-3.9-3.7-7.1-7.2-9.6-10.8c-2.4-3.5-4.6-6.7-6.3-9.7c-1.8-2.9-3.3-5.5-4.6-7.6c-1.3-2.2-2.8-3.8-4.6-4.9c-1.6-1.1-2.6-2-2.7-2.8c-0.2-0.8-0.6-1.4-1.2-1.8s-1.9-0.6-3.9-0.6c-2,0-5.7,0.3-11.1,0.8c-1.6,0.3-3.1,0.4-4.5,0.5c-1.3,0.1-2.6,0.2-3.7,0.3l-18.1-38.5c3.5-2.7,7.3-4.9,11.3-6.5c4-1.6,8.1-2.4,12.3-2.4c4.7,0,8.7-0.1,12-0.3c3.3-0.2,6-0.1,8.4,0.3c2.3,0.4,4.3,1.2,6,2.4C144.2,111.9,145.9,113.9,147.7,116.8L147.7,116.8z"/></g></g>
</svg>